<svg width="37" height="37" xmlns="http://www.w3.org/2000/svg" xmlns:xlink="http://www.w3.org/1999/xlink" xml:space="preserve" overflow="hidden"><defs><clipPath id="clip0"><rect x="32" y="449" width="37" height="37"/></clipPath></defs><g clip-path="url(#clip0)" transform="translate(-32 -449)"><path d="M52.9802 481.667 45.6144 481.667C46.2761 482.676 47.7 483.344 49.2973 483.344 50.8945 483.344 52.3186 482.676 52.9802 481.667Z" fill="#112C49" fill-rule="evenodd"/><path d="M54.0093 480.159 44.5858 480.159C44.5845 480.159 44.5831 480.159 44.5818 480.159 44.3752 480.159 44.2075 480.327 44.2075 480.533 44.2075 480.739 44.3752 480.907 44.5818 480.907L44.9844 480.907C44.9942 480.907 45.004 480.907 45.0137 480.907L53.582 480.907C53.5907 480.907 53.5994 480.907 53.6082 480.907L54.0134 480.907C54.2194 480.907 54.387 480.739 54.387 480.533 54.387 480.327 54.2193 480.159 54.0134 480.159L54.0092 480.159Z" fill="#112C49" fill-rule="evenodd"/><path d="M54.0092 478.651 44.5858 478.651C44.5845 478.651 44.5831 478.651 44.5818 478.651 44.3752 478.651 44.2075 478.819 44.2075 479.025 44.2075 479.231 44.3752 479.399 44.5818 479.399L54.0134 479.399C54.2194 479.399 54.387 479.231 54.387 479.025 54.387 478.819 54.2193 478.651 54.0134 478.651L54.0092 478.651Z" fill="#112C49" fill-rule="evenodd"/><path d="M54.0133 477.143 49.0562 477.143 44.5818 477.143C44.4374 477.143 44.3121 477.225 44.2496 477.344 44.2431 477.364 44.2351 477.383 44.2255 477.402 44.2138 477.438 44.2075 477.476 44.2075 477.517 44.2075 477.722 44.3752 477.89 44.5818 477.89L54.0134 477.89C54.2194 477.89 54.387 477.722 54.387 477.517 54.387 477.373 54.3057 477.248 54.1869 477.186 54.1788 477.182 54.171 477.178 54.1632 477.174 54.1173 477.154 54.0666 477.143 54.0133 477.143Z" fill="#112C49" fill-rule="evenodd"/><path d="M49.4366 469.84 49.4367 476.382 54.0134 476.382C54.116 476.382 54.2155 476.396 54.31 476.422 54.6238 476.242 54.9043 476.012 55.1416 475.741 54.6683 475.612 54.0301 475.339 53.5644 474.766 53.1994 474.316 53.0013 473.763 52.9736 473.114 52.5241 473.338 51.8547 473.517 50.9271 473.393 50.7192 473.365 50.5726 473.174 50.6004 472.966 50.6282 472.757 50.8202 472.611 51.0275 472.639 52.4976 472.835 53.0911 472.103 53.0964 472.096 53.2013 471.957 53.3875 471.906 53.5479 471.974 53.7091 472.041 53.8027 472.21 53.7763 472.382 53.6536 473.182 53.7797 473.822 54.1513 474.282 54.7174 474.983 55.6998 475.086 55.8161 475.096 56.9756 475.071 57.9214 474.106 57.9214 472.94 57.9215 472.715 57.8871 472.494 57.8197 472.282 57.7822 472.163 57.8052 472.032 57.8825 471.933 57.9598 471.834 58.0812 471.78 58.2059 471.788 58.2377 471.79 58.2706 471.79 58.3017 471.79 59.3223 471.79 60.1527 470.96 60.1527 469.939 60.1527 469.528 60.0193 469.137 59.7678 468.81 59.6874 468.706 59.6668 468.568 59.7131 468.445 59.7592 468.321 59.8662 468.231 59.9956 468.206 60.8605 468.035 61.4882 467.272 61.4882 466.39 61.4882 465.779 61.1872 465.208 60.6821 464.863 60.5838 464.795 60.5224 464.686 60.5171 464.566 60.5119 464.446 60.5633 464.331 60.6558 464.255 61.0282 463.949 61.242 463.497 61.242 463.015 61.2421 462.486 60.9812 461.991 60.5442 461.691 60.4373 461.618 60.3752 461.495 60.3798 461.364 60.3844 461.234 60.4557 461.115 60.5679 461.05 61.1357 460.718 61.4881 460.105 61.4881 459.45 61.4882 458.433 60.661 457.604 59.6444 457.601 59.5151 457.6 59.3955 457.535 59.3255 457.426 59.2556 457.318 59.2456 457.181 59.2991 457.064 59.4511 456.728 59.5111 456.373 59.4787 456.007 59.3857 454.973 58.5334 454.162 57.4956 454.119 57.1663 454.105 56.8473 454.167 56.5496 454.302 56.4261 454.358 56.2822 454.344 56.172 454.265 56.0612 454.187 56.001 454.055 56.0136 453.921 56.0197 453.857 56.0228 453.796 56.0228 453.737 56.0229 452.589 55.0894 451.656 53.942 451.656 53.3413 451.656 52.7696 451.916 52.3742 452.371 52.3023 452.453 52.1979 452.501 52.0877 452.501 51.9782 452.501 51.8731 452.454 51.8012 452.371 51.3517 451.856 50.9641 451.656 50.4188 451.656L50.4043 451.656C49.8821 451.658 49.4386 452.111 49.4365 452.645L49.4365 452.649 49.4364 455.536C50.1066 455.616 51.3775 456.025 51.7556 457.946 51.796 458.152 51.6619 458.352 51.4559 458.393 51.4308 458.397 51.4064 458.4 51.382 458.4 51.2045 458.4 51.0453 458.274 51.0097 458.093 50.7343 456.694 49.9085 456.365 49.4366 456.293L49.4366 469.082C50.0585 469.08 51.4192 468.894 52.1973 467.417 52.295 467.231 52.5247 467.159 52.7108 467.258 52.8964 467.355 52.9676 467.585 52.8699 467.771 52.2092 469.026 51.1932 469.517 50.4571 469.707 50.0588 469.81 49.6992 469.838 49.4366 469.84ZM55.805 472.012C55.6295 472.012 55.4716 471.89 55.434 471.711 55.4175 471.633 55.0385 469.78 55.9971 468.441 56.246 468.094 56.5595 467.816 56.9351 467.606 56.4539 467.313 56.0248 466.798 55.8532 465.938 55.8117 465.732 55.9449 465.531 56.1509 465.491 56.3576 465.449 56.5575 465.583 56.5984 465.789 56.8996 467.293 58.1703 467.197 58.3294 467.179 58.3314 467.179 58.3327 467.178 58.3346 467.178 58.542 467.153 58.7308 467.301 58.7565 467.509 58.7797 467.695 58.6641 467.866 58.4905 467.919 58.4708 467.925 58.4489 467.93 58.4271 467.932 58.4186 467.934 58.4093 467.935 58.4007 467.936 57.5966 468.036 56.9972 468.354 56.6176 468.882 55.8539 469.943 56.1747 471.538 56.178 471.554 56.2209 471.759 56.0895 471.961 55.8842 472.004 55.8579 472.009 55.8314 472.012 55.805 472.012ZM57.6916 464.266C57.6884 464.17 57.5815 461.967 55.2597 461.703 55.0512 461.679 54.9012 461.49 54.925 461.281 54.9488 461.073 55.1376 460.923 55.3455 460.947 56.9036 461.125 57.6679 462.016 58.0349 462.731 58.4259 463.492 58.4508 464.212 58.4522 464.242 58.4581 464.452 58.2931 464.627 58.0831 464.634L58.072 464.634C57.8674 464.634 57.6983 464.471 57.6916 464.266ZM57.6099 458.628C57.4078 458.628 57.2395 458.469 57.2302 458.265 57.2296 458.245 57.1471 456.711 56.1337 455.807 55.5687 455.304 54.8068 455.081 53.8675 455.146 53.6588 455.16 53.476 455.003 53.4614 454.793 53.4476 454.583 53.6053 454.402 53.8146 454.387 54.9686 454.308 55.9205 454.596 56.6447 455.244 57.8996 456.367 57.9874 458.157 57.99 458.232 57.9987 458.442 57.8356 458.619 57.6257 458.628 57.6204 458.628 57.6151 458.628 57.6098 458.628ZM54.2478 464.292C53.0298 464.292 52.0388 462.98 52.0388 461.368 52.039 459.756 53.0297 458.445 54.2477 458.445 54.4577 458.445 54.6273 458.615 54.6273 458.825 54.6273 459.035 54.4576 459.205 54.2477 459.205 53.4628 459.205 52.7993 460.195 52.7993 461.368 52.7995 462.54 53.4627 463.531 54.2477 463.531 54.4577 463.531 54.6273 463.701 54.6273 463.911 54.6273 464.121 54.4576 464.292 54.2478 464.292Z" fill="#112C49" fill-rule="evenodd"/><path d="M41.3517 466.633C42.6464 468.471 44.1071 470.544 44.2563 476.43 44.3594 476.399 44.4687 476.382 44.5818 476.382L48.676 476.382 48.676 473.617C48.6756 473.609 48.6754 473.602 48.6754 473.594L48.6761 455.918C48.6761 455.917 48.676 455.916 48.676 455.915 48.676 455.915 48.676 455.915 48.676 455.915 48.6757 455.906 48.6757 455.897 48.676 455.889 48.676 455.889 48.676 455.889 48.676 455.889L48.6761 455.886 48.6761 452.778 48.6761 452.649 48.6761 451.663C43.589 451.863 39.5119 456.064 39.5119 461.2 39.5119 464.022 40.3647 465.232 41.3517 466.633Z" fill="#112C49" fill-rule="evenodd"/></g></svg>