<svg width="35" height="33" xmlns="http://www.w3.org/2000/svg" xmlns:xlink="http://www.w3.org/1999/xlink" xml:space="preserve" overflow="hidden"><defs><clipPath id="clip0"><rect x="825" y="492" width="35" height="33"/></clipPath></defs><g clip-path="url(#clip0)" transform="translate(-825 -492)"><path d="M16.5004 5.26397C13.0105 5.26397 10.1711 8.10264 10.1711 11.5925 10.1712 15.0817 13.0104 17.921 16.5003 17.921 19.9896 17.921 22.8281 15.0817 22.8281 11.5925 22.8282 8.10259 19.9895 5.26397 16.5004 5.26397Z" fill="#FFFFFF" fill-rule="evenodd" transform="matrix(1.06061 0 0 1 825 492)"/><path d="M7.59038 11.5925C7.59047 13.7295 11.7476 21.4491 14.4982 26.5577 15.2825 28.014 15.9807 29.3098 16.5003 30.3175 17.0195 29.3097 17.7175 28.0133 18.5017 26.5571 21.2525 21.4491 25.4096 13.7295 25.4096 11.5925 25.4098 6.67927 21.4129 2.68254 16.5004 2.68254 11.5871 2.68254 7.59038 6.67936 7.59038 11.5925ZM23.6016 11.5925C23.6017 15.508 20.4159 18.6944 16.5004 18.6944 12.5842 18.6944 9.39776 15.5081 9.39776 11.5925 9.39781 7.67633 12.5842 4.49058 16.5003 4.49058 20.416 4.49056 23.6016 7.67633 23.6016 11.5925Z" fill="#FFFFFF" fill-rule="evenodd" transform="matrix(1.06061 0 0 1 825 492)"/></g></svg>