<svg width="34" height="34" xmlns="http://www.w3.org/2000/svg" xmlns:xlink="http://www.w3.org/1999/xlink" xml:space="preserve" overflow="hidden"><defs><clipPath id="clip0"><rect x="33" y="48" width="34" height="34"/></clipPath></defs><g clip-path="url(#clip0)" transform="translate(-33 -48)"><path d="M52.6455 68.1948 52.6456 71.8635C52.6456 72.0797 52.4702 72.255 52.2541 72.255L47.746 72.255C47.5298 72.255 47.3544 72.0797 47.3544 71.8635L47.3545 68.1948C42.875 68.0404 39.0257 67.4999 36.7512 66.7024 36.6058 66.6514 36.4679 66.5916 36.3379 66.5237L36.338 75.9913C36.338 76.8651 37.0488 77.5761 37.9222 77.5761L62.0779 77.576C62.9512 77.576 63.6621 76.8652 63.6621 75.9915L63.6622 66.5237C63.5321 66.5915 63.3942 66.6514 63.2488 66.7024 60.9742 67.4997 57.125 68.0404 52.6456 68.1948Z" fill="#112C49" fill-rule="evenodd"/><path d="M51.573 67.2293 48.1375 67.2293 48.1375 67.8157 48.1375 71.472 51.8626 71.472 51.8626 67.8256 51.8625 67.8157 51.8626 67.2293Z" fill="#112C49" fill-rule="evenodd"/><path d="M51.9644 58.9326 51.9644 66.4464 52.2541 66.4464C52.4702 66.4464 52.6455 66.6216 52.6455 66.8379L52.6456 67.4113C57.0375 67.2585 60.7911 66.7345 62.9898 65.9635 63.7517 65.6965 64.2247 65.1076 64.2247 64.4267L64.2248 60.6018C64.2248 59.6814 63.3174 58.9327 62.2021 58.9327L51.9644 58.9326Z" fill="#112C49" fill-rule="evenodd"/><path d="M48.8183 58.9326 48.8184 66.4464 51.1815 66.4464 51.1815 58.9326Z" fill="#112C49" fill-rule="evenodd"/><path d="M44.6252 58.9326 37.7978 58.9325C36.6825 58.9325 35.7752 59.6815 35.7752 60.602L35.7753 64.4266C35.7753 65.1075 36.2482 65.6965 37.0101 65.9636 39.2096 66.7345 42.9631 67.2588 47.3544 67.4114L47.3545 66.8378C47.3545 66.6216 47.5297 66.4464 47.7459 66.4464L48.0354 66.4464 48.0354 58.9326 46.2062 58.9326 46.1996 58.9327 46.1931 58.9326 44.6396 58.9326 44.6324 58.9327 44.6252 58.9326Z" fill="#112C49" fill-rule="evenodd"/><path d="M52.5117 52.424C54.3102 52.4241 55.7731 53.8867 55.773 55.6853L55.7729 58.1496 53.3949 58.1496 53.3948 55.6853C53.3948 55.1988 52.9982 54.8021 52.5117 54.8021L47.4883 54.8022C47.0018 54.8022 46.6052 55.1988 46.6052 55.6853L46.6051 58.1497 44.2271 58.1497 44.227 55.6853C44.227 53.8868 45.6898 52.4239 47.4883 52.4239L52.5117 52.424Z" fill="#112C49" fill-rule="evenodd"/></g></svg>