<svg width="30" height="30" xmlns="http://www.w3.org/2000/svg" xmlns:xlink="http://www.w3.org/1999/xlink" xml:space="preserve" overflow="hidden"><defs><clipPath id="clip0"><rect x="359" y="258" width="30" height="30"/></clipPath></defs><g clip-path="url(#clip0)" transform="translate(-359 -258)"><path d="M385.181 270.005 385.181 275.995 386.847 276.442 386.847 269.558Z" fill="#FFFFFF" fill-rule="evenodd"/><path d="M386.847 265.277 377.975 273 386.847 280.723 386.847 277.08 384.793 276.53C384.658 276.494 384.564 276.372 384.564 276.232L384.564 269.768C384.564 269.629 384.658 269.507 384.793 269.47L386.847 268.92 386.847 265.277Z" fill="#FFFFFF" fill-rule="evenodd"/><path d="M377.505 273.409 374.203 276.284C374.145 276.334 374.072 276.359 374 276.359 373.928 276.359 373.856 276.334 373.797 276.284L370.495 273.409 361.669 281.092 386.331 281.092 377.505 273.409Z" fill="#FFFFFF" fill-rule="evenodd"/><path d="M361.153 269.558 361.153 276.442 362.82 275.995 362.82 270.005Z" fill="#FFFFFF" fill-rule="evenodd"/><path d="M363.436 269.768 363.436 276.232C363.436 276.371 363.342 276.494 363.208 276.53L361.153 277.08 361.153 280.723 370.025 273 361.153 265.277 361.153 268.92 363.208 269.47C363.342 269.507 363.436 269.629 363.436 269.768Z" fill="#FFFFFF" fill-rule="evenodd"/><path d="M361.669 264.908 374 275.642 377.294 272.776C377.3 272.77 377.306 272.765 377.312 272.759L386.332 264.908 361.669 264.908ZM378.002 269.94 369.998 269.94C369.828 269.94 369.69 269.802 369.69 269.632 369.69 269.462 369.828 269.324 369.998 269.324L378.002 269.324C378.173 269.324 378.31 269.462 378.31 269.632 378.31 269.802 378.173 269.94 378.002 269.94ZM378.002 267.642 369.998 267.642C369.828 267.642 369.69 267.504 369.69 267.334 369.69 267.164 369.828 267.026 369.998 267.026L378.002 267.026C378.173 267.026 378.31 267.164 378.31 267.334 378.31 267.504 378.173 267.642 378.002 267.642Z" fill="#FFFFFF" fill-rule="evenodd"/></g></svg>