<svg width="32" height="31" xmlns="http://www.w3.org/2000/svg" xmlns:xlink="http://www.w3.org/1999/xlink" xml:space="preserve" overflow="hidden"><defs><clipPath id="clip0"><rect x="34" y="50" width="32" height="31"/></clipPath></defs><g clip-path="url(#clip0)" transform="translate(-34 -50)"><path d="M16.6796 1.41723 20.532 8.9733C20.7304 9.36296 21.0718 9.61111 21.5036 9.67968L29.8804 11.008C30.3842 11.088 30.774 11.4212 30.9319 11.9066 31.0897 12.3919 30.97 12.8907 30.6089 13.2516L24.6129 19.2498C24.3045 19.5591 24.1739 19.9607 24.2417 20.3929L25.5673 28.77C25.6465 29.274 25.4505 29.7479 25.0374 30.0478 24.6246 30.3477 24.1134 30.3881 23.6586 30.1565L16.1008 26.3077C15.7116 26.1091 15.2891 26.1091 14.8993 26.3077L7.34147 30.1565C6.88657 30.3879 6.37554 30.3477 5.96249 30.0478 5.54965 29.7478 5.3535 29.274 5.43344 28.77L6.75835 20.3927C6.82672 19.9606 6.69628 19.5593 6.38705 19.25L0.39119 13.2515C0.0300526 12.8905-0.0896582 12.3919 0.0681682 11.9066 0.226067 11.4212 0.615953 11.0881 1.11976 11.0082L9.49643 9.67954C9.92828 9.6111 10.2697 9.36296 10.4687 8.97343L14.3205 1.41722C14.5526 0.962546 14.9901 0.694662 15.5004 0.694662 16.0106 0.694591 16.4474 0.962619 16.6796 1.41722ZM15.5005 2.45559 19.1757 9.66483C19.5955 10.4883 20.3524 11.0384 21.2653 11.1832L29.257 12.4507 23.5369 18.1739C22.8861 18.8249 22.5949 19.7212 22.7388 20.6305L24.0024 28.623 16.7916 24.9512C15.9678 24.5316 15.0322 24.5314 14.2084 24.951L6.99757 28.623 8.26212 20.6305C8.40592 19.7215 8.11444 18.8248 7.46375 18.1738L1.74312 12.4506 9.73478 11.1832C10.6479 11.0383 11.4051 10.4884 11.8251 9.66474L15.5005 2.45557Z" fill="#112C49" fill-rule="evenodd" transform="matrix(1.03226 0 0 1 34 50)"/><path d="M15.5004 3.67437 12.3181 9.91611C11.8181 10.8974 10.9098 11.5573 9.82142 11.7299L2.90217 12.8272 7.85519 17.7824C8.63238 18.5599 8.98037 19.6313 8.80881 20.7171L7.71394 27.6371 13.9572 24.4576C14.9389 23.9579 16.0611 23.9579 17.0427 24.4578L23.2861 27.6371 22.1918 20.7169C22.0197 19.6311 22.3677 18.5599 23.1455 17.7825L28.0979 12.8272 21.1785 11.7299C20.0908 11.5573 19.1826 10.8975 18.6825 9.91625L15.5004 3.67437Z" fill="#112C49" fill-rule="evenodd" transform="matrix(1.03226 0 0 1 34 50)"/></g></svg>