<svg width="31" height="31" xmlns="http://www.w3.org/2000/svg" xmlns:xlink="http://www.w3.org/1999/xlink" xml:space="preserve" overflow="hidden"><defs><clipPath id="clip0"><rect x="827" y="451" width="31" height="31"/></clipPath></defs><g clip-path="url(#clip0)" transform="translate(-827 -451)"><path d="M847.549 460.328C848.503 460.22 849.386 460.081 850.169 459.913 852.499 459.413 853.121 458.831 853.121 458.566 853.121 458.559 853.121 458.553 853.122 458.547 851.055 455.794 847.945 453.867 844.383 453.359 845.198 454.056 845.935 455.211 846.544 456.772 846.957 457.831 847.294 459.03 847.549 460.328Z" fill="#FFFFFF" fill-rule="evenodd"/><path d="M837.451 472.672C836.497 472.78 835.614 472.919 834.831 473.087 832.501 473.587 831.879 474.169 831.879 474.434 831.879 474.44 831.878 474.446 831.878 474.452 833.945 477.206 837.055 479.133 840.616 479.641 839.802 478.944 839.065 477.789 838.456 476.228 838.043 475.169 837.706 473.97 837.451 472.672Z" fill="#FFFFFF" fill-rule="evenodd"/><path d="M853.121 474.453C853.121 474.447 853.121 474.441 853.121 474.434 853.121 474.169 852.499 473.587 850.169 473.087 849.386 472.919 848.503 472.78 847.549 472.672 847.294 473.97 846.957 475.169 846.544 476.228 845.935 477.789 845.198 478.944 844.384 479.641 847.945 479.133 851.055 477.206 853.121 474.453Z" fill="#FFFFFF" fill-rule="evenodd"/><path d="M842.818 472.408 842.819 479.746C843.967 479.535 845.093 478.195 845.951 475.996 846.344 474.987 846.667 473.844 846.913 472.606 845.637 472.484 844.252 472.417 842.818 472.408Z" fill="#FFFFFF" fill-rule="evenodd"/><path d="M842.818 453.254 842.818 460.592C844.252 460.583 845.637 460.515 846.913 460.394 846.667 459.156 846.344 458.013 845.951 457.003 845.093 454.805 843.967 453.465 842.818 453.254Z" fill="#FFFFFF" fill-rule="evenodd"/><path d="M842.182 460.592 842.182 453.254C841.034 453.465 839.907 454.805 839.049 457.004 838.656 458.013 838.333 459.156 838.087 460.394 839.363 460.515 840.748 460.583 842.182 460.592Z" fill="#FFFFFF" fill-rule="evenodd"/><path d="M842.182 479.746 842.182 472.408C840.748 472.417 839.363 472.484 838.087 472.606 838.333 473.844 838.656 474.987 839.049 475.996 839.907 478.195 841.034 479.535 842.182 479.746Z" fill="#FFFFFF" fill-rule="evenodd"/><path d="M848.116 466.165 855.771 466.165C855.706 463.573 854.895 461.163 853.545 459.143 853.113 459.699 852.028 460.166 850.302 460.536 849.512 460.706 848.623 460.846 847.664 460.956 847.944 462.581 848.099 464.344 848.116 466.165Z" fill="#FFFFFF" fill-rule="evenodd"/><path d="M842.818 466.165 847.479 466.165C847.462 464.364 847.308 462.623 847.03 461.022 845.718 461.149 844.292 461.22 842.818 461.229L842.818 466.165Z" fill="#FFFFFF" fill-rule="evenodd"/><path d="M837.521 466.165 842.182 466.165 842.182 461.229C840.708 461.22 839.282 461.149 837.97 461.022 837.692 462.623 837.538 464.364 837.521 466.165Z" fill="#FFFFFF" fill-rule="evenodd"/><path d="M829.229 466.165 836.884 466.165C836.901 464.344 837.056 462.582 837.336 460.956 836.377 460.846 835.488 460.706 834.698 460.536 832.973 460.166 831.887 459.699 831.455 459.143 830.105 461.163 829.294 463.573 829.229 466.165Z" fill="#FFFFFF" fill-rule="evenodd"/><path d="M836.884 466.802 829.228 466.802C829.287 469.406 830.099 471.828 831.455 473.857 831.887 473.301 832.972 472.834 834.698 472.464 835.488 472.294 836.377 472.154 837.336 472.044 837.054 470.408 836.899 468.634 836.884 466.802Z" fill="#FFFFFF" fill-rule="evenodd"/><path d="M842.182 466.802 837.52 466.802C837.536 468.615 837.69 470.367 837.97 471.978 839.282 471.85 840.708 471.78 842.182 471.771L842.182 466.802Z" fill="#FFFFFF" fill-rule="evenodd"/><path d="M847.479 466.802 842.818 466.802 842.818 471.771C844.292 471.78 845.718 471.85 847.03 471.978 847.31 470.367 847.464 468.615 847.479 466.802Z" fill="#FFFFFF" fill-rule="evenodd"/><path d="M855.772 466.802 848.116 466.802C848.101 468.634 847.946 470.409 847.665 472.044 848.623 472.154 849.512 472.294 850.302 472.464 852.028 472.834 853.113 473.301 853.545 473.857 854.901 471.828 855.713 469.406 855.772 466.802Z" fill="#FFFFFF" fill-rule="evenodd"/><path d="M840.616 453.359C837.055 453.867 833.945 455.795 831.878 458.548 831.878 458.554 831.878 458.56 831.878 458.566 831.878 458.831 832.501 459.413 834.831 459.913 835.614 460.081 836.497 460.22 837.451 460.328 837.706 459.03 838.043 457.831 838.456 456.772 839.065 455.211 839.802 454.056 840.616 453.359Z" fill="#FFFFFF" fill-rule="evenodd"/></g></svg>