<svg width="28" height="29" xmlns="http://www.w3.org/2000/svg" xmlns:xlink="http://www.w3.org/1999/xlink" xml:space="preserve" overflow="hidden"><defs><clipPath id="clip0"><rect x="36" y="661" width="28" height="29"/></clipPath></defs><g clip-path="url(#clip0)" transform="translate(-36 -661)"><path d="M18.1545 8.79372 18.1545 12.9317 21.5066 12.9317 21.5066 8.79372Z" fill="#112C49" fill-rule="evenodd" transform="matrix(1 0 0 1.03571 36 661)"/><path d="M22.0821 8.50595 22.0821 13.2194C22.0821 13.3783 21.9532 13.5072 21.7943 13.5072L17.8667 13.5072C17.7078 13.5072 17.5789 13.3783 17.5789 13.2194L17.5789 8.50595C17.5789 8.3471 17.7078 8.21823 17.8667 8.21823L21.7943 8.21819C21.9532 8.21819 22.0821 8.3471 22.0821 8.50595ZM8.95384 2.583 8.95384 22.7982C8.95384 23.8802 8.41276 24.8389 7.58704 25.417L23.3715 25.417C24.8157 25.417 25.9902 24.2419 25.9902 22.7982L25.9903 2.583 8.95384 2.583ZM10.8362 15.9561 22.9334 15.956C23.0922 15.956 23.2211 16.0849 23.2211 16.2438 23.2211 16.4027 23.0922 16.5316 22.9334 16.5316L10.8363 16.5316C10.6774 16.5316 10.5485 16.4027 10.5485 16.2438 10.5485 16.0849 10.6774 15.9561 10.8362 15.9561ZM10.8362 18.9805 22.9334 18.9805C23.0922 18.9805 23.2211 19.1089 23.2211 19.2683 23.2211 19.4271 23.0922 19.556 22.9334 19.556L10.8363 19.556C10.6774 19.556 10.5485 19.4271 10.5485 19.2683 10.5485 19.1089 10.6774 18.9805 10.8362 18.9805ZM10.8362 22.0049 22.9334 22.0049C23.0922 22.0049 23.2211 22.1333 23.2211 22.2926 23.2211 22.4515 23.0922 22.5804 22.9334 22.5804L10.8363 22.5804C10.6774 22.5804 10.5485 22.4515 10.5485 22.2926 10.5485 22.1333 10.6774 22.0049 10.8362 22.0049ZM15.0781 11.2036C15.2369 11.2036 15.3658 11.3321 15.3658 11.4914 15.3659 11.6503 15.2369 11.7791 15.0781 11.7791L10.8363 11.7791C10.6774 11.7791 10.5485 11.6503 10.5485 11.4914 10.5485 11.332 10.6774 11.2036 10.8362 11.2036L15.0781 11.2036ZM15.0781 8.79368 10.8363 8.79368C10.6774 8.79368 10.5485 8.6653 10.5485 8.50595 10.5485 8.34706 10.6774 8.21823 10.8362 8.21823L15.0781 8.21819C15.2369 8.21819 15.3659 8.3471 15.3659 8.50595 15.3659 8.6653 15.2369 8.79372 15.0781 8.79368ZM23.0908 5.7693 16.5709 5.7693C16.4115 5.7693 16.2831 5.64092 16.2831 5.48154 16.2831 5.32268 16.4115 5.19377 16.5709 5.19377L23.0908 5.19377C23.2496 5.19377 23.3785 5.32268 23.3785 5.48154 23.3786 5.64092 23.2496 5.7693 23.0908 5.7693Z" fill="#112C49" fill-rule="evenodd" transform="matrix(1 0 0 1.03571 36 661)"/><path d="M8.37831 12.8523 2.00977 12.8523 2.00977 22.8667C2.00977 24.273 3.15376 25.417 4.55959 25.417L5.75954 25.417C7.20383 25.417 8.37827 24.242 8.37827 22.7982L8.37831 12.8523Z" fill="#112C49" fill-rule="evenodd" transform="matrix(1 0 0 1.03571 36 661)"/></g></svg>