<svg width="30" height="30" xmlns="http://www.w3.org/2000/svg" xmlns:xlink="http://www.w3.org/1999/xlink" xml:space="preserve" overflow="hidden"><defs><clipPath id="clip0"><rect x="359" y="218" width="30" height="30"/></clipPath></defs><g clip-path="url(#clip0)" transform="translate(-359 -218)"><path d="M364.913 221.127 369.396 225.609 370.031 224.974C370.382 224.623 370.382 224.053 370.031 223.702L366.82 220.491C366.47 220.141 365.9 220.141 365.549 220.491L364.913 221.127Z" fill="#FFFFFF" fill-rule="evenodd"/><path d="M368.918 226.126 364.416 221.624 361.777 224.264C360.833 225.207 361.115 227.18 362.569 229.818 363.936 232.299 366.224 235.2 369.012 237.988 371.8 240.776 374.701 243.064 377.182 244.432 379.82 245.885 381.793 246.167 382.736 245.224L385.376 242.584 380.874 238.082C380.2 238.604 379.411 238.832 378.566 238.832 376.338 238.832 373.713 237.249 371.732 235.268 368.999 232.535 367.022 228.574 368.918 226.126Z" fill="#FFFFFF" fill-rule="evenodd"/><path d="M382.026 236.969 381.391 237.604 385.873 242.087 386.509 241.451C386.859 241.1 386.859 240.53 386.509 240.18L383.298 236.969C382.947 236.618 382.377 236.618 382.026 236.969Z" fill="#FFFFFF" fill-rule="evenodd"/></g></svg>